  0
SECTION
  2
HEADER
  9
$ACADVER
  1
AC1012
  9
$DWGCODEPAGE
  3
ansi_1252
  9
$INSBASE
 10
0.0
 20
0.0
 30
0.0
  9
$EXTMIN
 10
-1.5
 20
-1.5
 30
0.0
  9
$EXTMAX
 10
171.4973275550686
 20
102.5
 30
0.0
  9
$LIMMIN
 10
0.0
 20
0.0
  9
$LIMMAX
 10
420.0
 20
297.0
  9
$ORTHOMODE
 70
     0
  9
$REGENMODE
 70
     1
  9
$FILLMODE
 70
     1
  9
$QTEXTMODE
 70
     0
  9
$MIRRTEXT
 70
     0
  9
$DRAGMODE
 70
     2
  9
$LTSCALE
 40
1.0
  9
$OSMODE
 70
   511
  9
$ATTMODE
 70
     1
  9
$TEXTSIZE
 40
2.5
  9
$TRACEWID
 40
1.0
  9
$TEXTSTYLE
  7
STANDARD
  9
$CLAYER
  8
0
  9
$CELTYPE
  6
BYLAYER
  9
$CECOLOR
 62
   256
  9
$CELTSCALE
 40
1.0
  9
$DELOBJ
 70
     1
  9
$DISPSILH
 70
     0
  9
$DIMSCALE
 40
1.0
  9
$DIMASZ
 40
2.5
  9
$DIMEXO
 40
0.625
  9
$DIMDLI
 40
3.75
  9
$DIMRND
 40
0.0
  9
$DIMDLE
 40
0.0
  9
$DIMEXE
 40
1.25
  9
$DIMTP
 40
0.0
  9
$DIMTM
 40
0.0
  9
$DIMTXT
 40
2.5
  9
$DIMCEN
 40
2.5
  9
$DIMTSZ
 40
0.0
  9
$DIMTOL
 70
     0
  9
$DIMLIM
 70
     0
  9
$DIMTIH
 70
     0
  9
$DIMTOH
 70
     0
  9
$DIMSE1
 70
     0
  9
$DIMSE2
 70
     0
  9
$DIMTAD
 70
     1
  9
$DIMZIN
 70
     8
  9
$DIMBLK
  1

  9
$DIMASO
 70
     1
  9
$DIMSHO
 70
     1
  9
$DIMPOST
  1

  9
$DIMAPOST
  1

  9
$DIMALT
 70
     0
  9
$DIMALTD
 70
     3
  9
$DIMALTF
 40
0.03937007874016
  9
$DIMLFAC
 40
1.0
  9
$DIMTOFL
 70
     1
  9
$DIMTVP
 40
0.0
  9
$DIMTIX
 70
     0
  9
$DIMSOXD
 70
     0
  9
$DIMSAH
 70
     0
  9
$DIMBLK1
  1

  9
$DIMBLK2
  1

  9
$DIMSTYLE
  2
ISO-25
  9
$DIMCLRD
 70
     0
  9
$DIMCLRE
 70
     0
  9
$DIMCLRT
 70
     0
  9
$DIMTFAC
 40
1.0
  9
$DIMGAP
 40
0.625
  9
$DIMJUST
 70
     0
  9
$DIMSD1
 70
     0
  9
$DIMSD2
 70
     0
  9
$DIMTOLJ
 70
     0
  9
$DIMTZIN
 70
     8
  9
$DIMALTZ
 70
     0
  9
$DIMALTTZ
 70
     0
  9
$DIMFIT
 70
     5
  9
$DIMUPT
 70
     0
  9
$DIMUNIT
 70
     2
  9
$DIMDEC
 70
     2
  9
$DIMTDEC
 70
     2
  9
$DIMALTU
 70
     2
  9
$DIMALTTD
 70
     3
  9
$DIMTXSTY
  7
STANDARD
  9
$DIMAUNIT
 70
     0
  9
$LUNITS
 70
     2
  9
$LUPREC
 70
     3
  9
$SKETCHINC
 40
1.0
  9
$FILLETRAD
 40
6.0
  9
$AUNITS
 70
     0
  9
$AUPREC
 70
     0
  9
$MENU
  1
.
  9
$ELEVATION
 40
0.0
  9
$PELEVATION
 40
0.0
  9
$THICKNESS
 40
0.0
  9
$LIMCHECK
 70
     0
  9
$CHAMFERA
 40
10.0
  9
$CHAMFERB
 40
10.0
  9
$CHAMFERC
 40
20.0
  9
$CHAMFERD
 40
0.0
  9
$SKPOLY
 70
     0
  9
$TDCREATE
 40
2455022.387359514
  9
$TDUPDATE
 40
2458316.360417072
  9
$TDINDWG
 40
0.539258831
  9
$TDUSRTIMER
 40
0.0003148264
  9
$USRTIMER
 70
     1
  9
$ANGBASE
 50
0.0
  9
$ANGDIR
 70
     0
  9
$PDMODE
 70
     0
  9
$PDSIZE
 40
0.0
  9
$PLINEWID
 40
0.0
  9
$COORDS
 70
     1
  9
$SPLFRAME
 70
     0
  9
$SPLINETYPE
 70
     6
  9
$SPLINESEGS
 70
     8
  9
$ATTDIA
 70
     0
  9
$ATTREQ
 70
     1
  9
$HANDLING
 70
     1
  9
$HANDSEED
  5
49D
  9
$SURFTAB1
 70
     6
  9
$SURFTAB2
 70
     6
  9
$SURFTYPE
 70
     6
  9
$SURFU
 70
     6
  9
$SURFV
 70
     6
  9
$UCSNAME
  2

  9
$UCSORG
 10
0.0
 20
0.0
 30
0.0
  9
$UCSXDIR
 10
1.0
 20
0.0
 30
0.0
  9
$UCSYDIR
 10
0.0
 20
1.0
 30
0.0
  9
$PUCSNAME
  2

  9
$PUCSORG
 10
0.0
 20
0.0
 30
0.0
  9
$PUCSXDIR
 10
1.0
 20
0.0
 30
0.0
  9
$PUCSYDIR
 10
0.0
 20
1.0
 30
0.0
  9
$USERI1
 70
     0
  9
$USERI2
 70
     0
  9
$USERI3
 70
     0
  9
$USERI4
 70
     0
  9
$USERI5
 70
     0
  9
$USERR1
 40
0.0
  9
$USERR2
 40
0.0
  9
$USERR3
 40
0.0
  9
$USERR4
 40
0.0
  9
$USERR5
 40
0.0
  9
$WORLDVIEW
 70
     1
  9
$SHADEDGE
 70
     3
  9
$SHADEDIF
 70
    70
  9
$TILEMODE
 70
     1
  9
$MAXACTVP
 70
    64
  9
$PINSBASE
 10
0.0
 20
0.0
 30
0.0
  9
$PLIMCHECK
 70
     0
  9
$PEXTMIN
 10
1.000000000000000E+20
 20
1.000000000000000E+20
 30
1.000000000000000E+20
  9
$PEXTMAX
 10
-1.000000000000000E+20
 20
-1.000000000000000E+20
 30
-1.000000000000000E+20
  9
$PLIMMIN
 10
0.0
 20
0.0
  9
$PLIMMAX
 10
0.0
 20
0.0
  9
$UNITMODE
 70
     0
  9
$VISRETAIN
 70
     1
  9
$PLINEGEN
 70
     0
  9
$PSLTSCALE
 70
     1
  9
$TREEDEPTH
 70
  3020
  9
$PICKSTYLE
 70
     1
  9
$CMLSTYLE
  2
STANDARD
  9
$CMLJUST
 70
     0
  9
$CMLSCALE
 40
20.0
  9
$SAVEIMAGES
 70
     1
  0
ENDSEC
  0
SECTION
  2
CLASSES
  0
CLASS
  1
ACDBDICTIONARYWDFLT
  2
AcDbDictionaryWithDefault
  3
ObjectDBX Classes
 90
    32768
280
     0
281
     0
  0
CLASS
  1
VISUALSTYLE
  2
AcDbVisualStyle
  3
ObjectDBX Classes
 90
     4095
280
     0
281
     0
  0
CLASS
  1
TABLESTYLE
  2
AcDbTableStyle
  3
ObjectDBX Classes
 90
     4095
280
     0
281
     0
  0
CLASS
  1
DICTIONARYVAR
  2
AcDbDictionaryVar
  3
ObjectDBX Classes
 90
        0
280
     0
281
     0
  0
CLASS
  1
SCALE
  2
AcDbScale
  3
ObjectDBX Classes
 90
     1153
280
     0
281
     0
  0
CLASS
  1
CELLSTYLEMAP
  2
AcDbCellStyleMap
  3
ObjectDBX Classes
 90
     1152
280
     0
281
     0
  0
CLASS
  1
RASTERVARIABLES
  2
AcDbRasterVariables
  3
ISM
 90
    32768
280
     0
281
     0
  0
CLASS
  1
MATERIAL
  2
AcDbMaterial
  3
ObjectDBX Classes
 90
     1153
280
     0
281
     0
  0
CLASS
  1
SUN
  2
AcDbSun
  3
SCENEOE
 90
     1153
280
     0
281
     0
  0
CLASS
  1
MLEADERSTYLE
  2
AcDbMLeaderStyle
  3
ACDB_MLEADERSTYLE_CLASS
 90
     4095
280
     0
281
     0
  0
CLASS
  1
DIMASSOC
  2
AcDbDimAssoc
  3
"AcDbDimAssoc|Product Desc:     AcDim ARX App For Dimension|Company:          Autodesk, Inc.|WEB Address:      www.autodesk.com"
 90
        0
280
     0
281
     0
  0
CLASS
  1
XRECORD
  2
AcDbXrecord
  3
ObjectDBX Classes
 90
    32768
280
     0
281
     0
  0
ENDSEC
  0
SECTION
  2
TABLES
  0
TABLE
  2
VPORT
  5
8
330
0
100
AcDbSymbolTable
 70
     1
  0
VPORT
  5
29
330
8
100
AcDbSymbolTableRecord
100
AcDbViewportTableRecord
  2
*ACTIVE
 70
     0
 10
0.0
 20
0.0
 11
1.0
 21
1.0
 12
189.7520099243725
 22
69.24545233865146
 13
0.0
 23
0.0
 14
10.0
 24
10.0
 15
10.0
 25
10.0
 16
0.0
 26
0.0
 36
1.0
 17
-134.1869158878503
 27
0.0
 37
0.0
 40
98.32630208979256
 41
1.684549356223176
 42
50.0
 43
0.0
 44
0.0
 50
0.0
 51
0.0
 71
    16
 72
  1000
 73
     1
 74
     3
 75
     0
 76
     0
 77
     0
 78
     0
  0
ENDTAB
  0
TABLE
  2
LTYPE
  5
5
330
0
100
AcDbSymbolTable
 70
     1
  0
LTYPE
  5
14
330
5
100
AcDbSymbolTableRecord
100
AcDbLinetypeTableRecord
  2
BYBLOCK
 70
     0
  3

 72
    65
 73
     0
 40
0.0
  0
LTYPE
  5
15
330
5
100
AcDbSymbolTableRecord
100
AcDbLinetypeTableRecord
  2
BYLAYER
 70
     0
  3

 72
    65
 73
     0
 40
0.0
  0
LTYPE
  5
16
330
5
100
AcDbSymbolTableRecord
100
AcDbLinetypeTableRecord
  2
CONTINUOUS
 70
     0
  3
Solid line
 72
    65
 73
     0
 40
0.0
  0
ENDTAB
  0
TABLE
  2
LAYER
  5
2
102
{ACAD_XDICTIONARY
360
BD
102
}
330
0
100
AcDbSymbolTable
 70
     6
  0
LAYER
  5
10
330
2
100
AcDbSymbolTableRecord
100
AcDbLayerTableRecord
  2
0
 70
     0
 62
     7
  6
CONTINUOUS
  0
LAYER
  5
C0
330
2
100
AcDbSymbolTableRecord
100
AcDbLayerTableRecord
  2
AUX
 70
     0
 62
     2
  6
CONTINUOUS
1001
ACAECLAYERSTANDARD
1000

1000

  0
LAYER
  5
103
330
2
100
AcDbSymbolTableRecord
100
AcDbLayerTableRecord
  2
OFFSET
 70
     0
 62
     3
  6
CONTINUOUS
1001
ACAECLAYERSTANDARD
1000

1000

  0
LAYER
  5
183
330
2
100
AcDbSymbolTableRecord
100
AcDbLayerTableRecord
  2
DEFPOINTS
 70
     0
 62
     7
  6
CONTINUOUS
  0
LAYER
  5
18D
330
2
100
AcDbSymbolTableRecord
100
AcDbLayerTableRecord
  2
ALERT
 70
     0
 62
     1
  6
CONTINUOUS
1001
ACAECLAYERSTANDARD
1000

1000

  0
LAYER
  5
269
330
2
100
AcDbSymbolTableRecord
100
AcDbLayerTableRecord
  2
DESBASTE
 70
     0
 62
     5
  6
CONTINUOUS
1001
ACAECLAYERSTANDARD
1000

1000

  0
ENDTAB
  0
TABLE
  2
STYLE
  5
3
330
0
100
AcDbSymbolTable
 70
     1
  0
STYLE
  5
11
330
3
100
AcDbSymbolTableRecord
100
AcDbTextStyleTableRecord
  2
STANDARD
 70
     0
 40
0.0
 41
1.0
 50
0.0
 71
     0
 42
2.5
  3
arial.ttf
  4

1001
ACAD
1000
Arial
1071
        0
  0
ENDTAB
  0
TABLE
  2
VIEW
  5
6
330
0
100
AcDbSymbolTable
 70
     0
  0
ENDTAB
  0
TABLE
  2
UCS
  5
7
330
0
100
AcDbSymbolTable
 70
     0
  0
ENDTAB
  0
TABLE
  2
APPID
  5
9
330
0
100
AcDbSymbolTable
 70
     2
  0
APPID
  5
12
330
9
100
AcDbSymbolTableRecord
100
AcDbRegAppTableRecord
  2
ACAD
 70
     0
  0
APPID
  5
C1
330
9
100
AcDbSymbolTableRecord
100
AcDbRegAppTableRecord
  2
ACAECLAYERSTANDARD
 70
     0
  0
ENDTAB
  0
TABLE
  2
DIMSTYLE
  5
A
330
0
100
AcDbSymbolTable
 70
     1
  0
DIMSTYLE
105
27
330
A
100
AcDbSymbolTableRecord
100
AcDbDimStyleTableRecord
  2
ISO-25
 70
     0
  3

  4

  5

  6

  7

 40
1.0
 41
2.5
 42
0.625
 43
3.75
 44
1.25
 45
0.0
 46
0.0
 47
0.0
 48
0.0
140
2.5
141
2.5
142
0.0
143
0.03937007874016
144
1.0
145
0.0
146
1.0
147
0.625
 71
     0
 72
     0
 73
     0
 74
     0
 75
     0
 76
     0
 77
     1
 78
     8
170
     0
171
     3
172
     1
173
     0
174
     0
175
     0
176
     0
177
     0
178
     0
270
     2
271
     2
272
     2
273
     2
274
     3
340
11
275
     0
280
     0
281
     0
282
     0
283
     0
284
     8
285
     0
286
     0
287
     3
288
     0
  0
ENDTAB
  0
TABLE
  2
BLOCK_RECORD
  5
1
330
0
100
AcDbSymbolTable
 70
     1
  0
BLOCK_RECORD
  5
1F
330
1
100
AcDbSymbolTableRecord
100
AcDbBlockTableRecord
  2
*MODEL_SPACE
  0
BLOCK_RECORD
  5
1B
330
1
100
AcDbSymbolTableRecord
100
AcDbBlockTableRecord
  2
*PAPER_SPACE
  0
BLOCK_RECORD
  5
23
330
1
100
AcDbSymbolTableRecord
100
AcDbBlockTableRecord
  2
*PAPER_SPACE0
  0
ENDTAB
  0
ENDSEC
  0
SECTION
  2
BLOCKS
  0
BLOCK
  5
20
330
1F
100
AcDbEntity
  8
0
100
AcDbBlockBegin
  2
*MODEL_SPACE
 70
     0
 10
0.0
 20
0.0
 30
0.0
  3
*MODEL_SPACE
  1

  0
ENDBLK
  5
21
330
1F
100
AcDbEntity
  8
0
100
AcDbBlockEnd
  0
BLOCK
  5
1C
330
1B
100
AcDbEntity
 67
     1
  8
0
100
AcDbBlockBegin
  2
*PAPER_SPACE
 70
     0
 10
0.0
 20
0.0
 30
0.0
  3
*PAPER_SPACE
  1

  0
ENDBLK
  5
1D
330
1B
100
AcDbEntity
 67
     1
  8
0
100
AcDbBlockEnd
  0
BLOCK
  5
24
330
23
100
AcDbEntity
  8
0
100
AcDbBlockBegin
  2
*PAPER_SPACE0
 70
     0
 10
0.0
 20
0.0
 30
0.0
  3
*PAPER_SPACE0
  1
*Paper_Space0
  0
ENDBLK
  5
25
330
23
100
AcDbEntity
  8
0
100
AcDbBlockEnd
  0
ENDSEC
  0
SECTION
  2
ENTITIES
  0
CIRCLE
  5
97
330
1F
100
AcDbEntity
  8
0
100
AcDbCircle
 10
10.50000000000001
 20
75.3
 30
0.0
 40
2.5
  0
CIRCLE
  5
99
330
1F
100
AcDbEntity
  8
0
100
AcDbCircle
 10
28.20000000000001
 20
75.3
 30
0.0
 40
3.57
  0
CIRCLE
  5
9D
330
1F
100
AcDbEntity
  8
0
100
AcDbCircle
 10
92.8
 20
75.29999999999998
 30
0.0
 40
2.5
  0
CIRCLE
  5
9F
330
1F
100
AcDbEntity
  8
0
100
AcDbCircle
 10
110.5
 20
75.29999999999995
 30
0.0
 40
2.5
  0
CIRCLE
  5
A3
330
1F
100
AcDbEntity
  8
0
100
AcDbCircle
 10
10.49999999999999
 20
10.7
 30
0.0
 40
3.57
  0
CIRCLE
  5
A5
330
1F
100
AcDbEntity
  8
0
100
AcDbCircle
 10
28.19999999999999
 20
10.69999999999999
 30
0.0
 40
3.57
  0
CIRCLE
  5
A6
330
1F
100
AcDbEntity
  8
0
100
AcDbCircle
 10
28.19999999999999
 20
42.99999999999999
 30
0.0
 40
3.57
  0
CIRCLE
  5
A7
330
1F
100
AcDbEntity
  8
0
100
AcDbCircle
 10
40.5
 20
52.99999999999999
 30
0.0
 40
2.5
  0
CIRCLE
  5
A8
330
1F
100
AcDbEntity
  8
0
100
AcDbCircle
 10
40.49999999999999
 20
32.99999999999999
 30
0.0
 40
2.5
  0
CIRCLE
  5
A9
330
1F
100
AcDbEntity
  8
ALERT
100
AcDbCircle
 10
50.49999999999999
 20
42.99999999999999
 30
0.0
 40
3.0
  0
CIRCLE
  5
AB
330
1F
100
AcDbEntity
  8
0
100
AcDbCircle
 10
60.49999999999999
 20
52.99999999999999
 30
0.0
 40
2.5
  0
CIRCLE
  5
AC
330
1F
100
AcDbEntity
  8
0
100
AcDbCircle
 10
60.49999999999999
 20
32.99999999999998
 30
0.0
 40
2.5
  0
CIRCLE
  5
B1
330
1F
100
AcDbEntity
  8
0
100
AcDbCircle
 10
110.5
 20
10.69999999999997
 30
0.0
 40
3.57
  0
CIRCLE
  5
B3
330
1F
100
AcDbEntity
  8
0
100
AcDbCircle
 10
92.79999999999998
 20
10.69999999999997
 30
0.0
 40
2.5
  0
CIRCLE
  5
B5
330
1F
100
AcDbEntity
  8
0
100
AcDbCircle
 10
80.5
 20
52.99999999999999
 30
0.0
 40
2.5
  0
CIRCLE
  5
B6
330
1F
100
AcDbEntity
  8
0
100
AcDbCircle
 10
80.49999999999999
 20
32.99999999999998
 30
0.0
 40
2.5
  0
CIRCLE
  5
B7
330
1F
100
AcDbEntity
  8
ALERT
100
AcDbCircle
 10
70.49999999999999
 20
42.99999999999998
 30
0.0
 40
3.0
  0
CIRCLE
  5
10A
330
1F
100
AcDbEntity
  8
OFFSET
100
AcDbCircle
 10
10.50000000000001
 20
75.3
 30
0.0
 40
1.5
  0
CIRCLE
  5
10D
330
1F
100
AcDbEntity
  8
OFFSET
100
AcDbCircle
 10
28.20000000000001
 20
75.3
 30
0.0
 40
2.57
  0
CIRCLE
  5
10E
330
1F
100
AcDbEntity
  8
OFFSET
100
AcDbCircle
 10
28.19999999999999
 20
42.99999999999999
 30
0.0
 40
2.57
  0
CIRCLE
  5
10F
330
1F
100
AcDbEntity
  8
OFFSET
100
AcDbCircle
 10
10.49999999999999
 20
10.7
 30
0.0
 40
2.57
  0
CIRCLE
  5
110
330
1F
100
AcDbEntity
  8
OFFSET
100
AcDbCircle
 10
28.19999999999999
 20
10.69999999999999
 30
0.0
 40
2.57
  0
CIRCLE
  5
111
330
1F
100
AcDbEntity
  8
OFFSET
100
AcDbCircle
 10
40.49999999999999
 20
32.99999999999999
 30
0.0
 40
1.5
  0
CIRCLE
  5
112
330
1F
100
AcDbEntity
  8
OFFSET
100
AcDbCircle
 10
40.5
 20
52.99999999999999
 30
0.0
 40
1.5
  0
CIRCLE
  5
113
330
1F
100
AcDbEntity
  8
OFFSET
100
AcDbCircle
 10
50.49999999999999
 20
42.99999999999999
 30
0.0
 40
2.0
  0
CIRCLE
  5
117
330
1F
100
AcDbEntity
  8
OFFSET
100
AcDbCircle
 10
60.49999999999999
 20
32.99999999999998
 30
0.0
 40
1.5
  0
CIRCLE
  5
118
330
1F
100
AcDbEntity
  8
OFFSET
100
AcDbCircle
 10
60.49999999999999
 20
52.99999999999999
 30
0.0
 40
1.5
  0
CIRCLE
  5
11E
330
1F
100
AcDbEntity
  8
OFFSET
100
AcDbCircle
 10
110.5
 20
75.29999999999995
 30
0.0
 40
1.5
  0
CIRCLE
  5
123
330
1F
100
AcDbEntity
  8
OFFSET
100
AcDbCircle
 10
110.5
 20
10.69999999999997
 30
0.0
 40
2.57
  0
CIRCLE
  5
125
330
1F
100
AcDbEntity
  8
OFFSET
100
AcDbCircle
 10
80.49999999999999
 20
32.99999999999998
 30
0.0
 40
1.5
  0
CIRCLE
  5
126
330
1F
100
AcDbEntity
  8
OFFSET
100
AcDbCircle
 10
80.5
 20
52.99999999999999
 30
0.0
 40
1.5
  0
CIRCLE
  5
127
330
1F
100
AcDbEntity
  8
OFFSET
100
AcDbCircle
 10
70.49999999999999
 20
42.99999999999998
 30
0.0
 40
2.0
  0
CIRCLE
  5
12B
330
1F
100
AcDbEntity
  8
OFFSET
100
AcDbCircle
 10
92.8
 20
75.29999999999998
 30
0.0
 40
1.5
  0
CIRCLE
  5
12C
330
1F
100
AcDbEntity
  8
OFFSET
100
AcDbCircle
 10
92.79999999999998
 20
10.69999999999997
 30
0.0
 40
1.5
  0
MTEXT
  5
190
330
1F
100
AcDbEntity
  8
DEFPOINTS
100
AcDbMText
 10
132.3721570230086
 20
68.71841645810207
 30
0.0
 40
2.5
 41
37.9129360879121
 71
     1
 72
     5
  3
{\fArial|b1|i0|c0|p0;Attention:\PThe figures in RED can either be 5mm OR 6mm in diameter. Most of the machines out there use 5mm holes but there are a few of the first batches in which the Z-axis delrin nut uses 6mm screws. Chech your machine and ad
  1
just if needed.}
1001
ACAD
1000
ACAD_MTEXT_DEFINED_HEIGHT_BEGIN
1070
    46
1040
48.58833333333334
1000
ACAD_MTEXT_DEFINED_HEIGHT_END
  0
CIRCLE
  5
1C4
330
1F
100
AcDbEntity
  8
0
100
AcDbCircle
 10
11.5
 20
38.24999999999999
 30
0.0
 40
1.25
  0
CIRCLE
  5
1C5
330
1F
100
AcDbEntity
  8
0
100
AcDbCircle
 10
11.5
 20
47.75
 30
0.0
 40
1.25
  0
CIRCLE
  5
1DB
330
1F
100
AcDbEntity
  8
0
100
AcDbCircle
 10
109.5
 20
38.24999999999999
 30
0.0
 40
1.25
  0
CIRCLE
  5
1DC
330
1F
100
AcDbEntity
  8
0
100
AcDbCircle
 10
109.5
 20
47.75
 30
0.0
 40
1.25
  0
CIRCLE
  5
1EB
330
1F
100
AcDbEntity
  8
0
100
AcDbCircle
 10
65.25
 20
89.5
 30
0.0
 40
1.25
  0
CIRCLE
  5
1EC
330
1F
100
AcDbEntity
  8
0
100
AcDbCircle
 10
55.75
 20
89.5
 30
0.0
 40
1.25
  0
POLYLINE
  5
261
330
1F
100
AcDbEntity
  8
DESBASTE
100
AcDb2dPolyline
 66
     1
 10
0.0
 20
0.0
 30
0.0
 70
     1
  0
VERTEX
  5
467
330
261
100
AcDbEntity
  8
DESBASTE
100
AcDbVertex
100
AcDb2dVertex
 10
47.5
 20
82.5
 30
0.0
  0
VERTEX
  5
468
330
261
100
AcDbEntity
  8
DESBASTE
100
AcDbVertex
100
AcDb2dVertex
 10
47.5
 20
102.5
 30
0.0
  0
VERTEX
  5
469
330
261
100
AcDbEntity
  8
DESBASTE
100
AcDbVertex
100
AcDb2dVertex
 10
73.5
 20
102.5
 30
0.0
  0
VERTEX
  5
46A
330
261
100
AcDbEntity
  8
DESBASTE
100
AcDbVertex
100
AcDb2dVertex
 10
73.5
 20
82.5
 30
0.0
  0
SEQEND
  5
497
330
261
100
AcDbEntity
  8
DESBASTE
  0
POLYLINE
  5
263
330
1F
100
AcDbEntity
  8
DESBASTE
100
AcDb2dPolyline
 66
     1
 10
0.0
 20
0.0
 30
0.0
 70
     1
  0
VERTEX
  5
46B
330
263
100
AcDbEntity
  8
DESBASTE
100
AcDbVertex
100
AcDb2dVertex
 10
122.5
 20
30.0
 30
0.0
  0
VERTEX
  5
46C
330
263
100
AcDbEntity
  8
DESBASTE
100
AcDbVertex
100
AcDb2dVertex
 10
102.5
 20
30.0
 30
0.0
  0
VERTEX
  5
46D
330
263
100
AcDbEntity
  8
DESBASTE
100
AcDbVertex
100
AcDb2dVertex
 10
102.5
 20
56.0
 30
0.0
  0
VERTEX
  5
46E
330
263
100
AcDbEntity
  8
DESBASTE
100
AcDbVertex
100
AcDb2dVertex
 10
122.5
 20
56.0
 30
0.0
  0
SEQEND
  5
498
330
263
100
AcDbEntity
  8
DESBASTE
  0
POLYLINE
  5
264
330
1F
100
AcDbEntity
  8
DESBASTE
100
AcDb2dPolyline
 66
     1
 10
0.0
 20
0.0
 30
0.0
 70
     1
  0
VERTEX
  5
46F
330
264
100
AcDbEntity
  8
DESBASTE
100
AcDbVertex
100
AcDb2dVertex
 10
-1.5
 20
30.0
 30
0.0
  0
VERTEX
  5
470
330
264
100
AcDbEntity
  8
DESBASTE
100
AcDbVertex
100
AcDb2dVertex
 10
18.5
 20
30.0
 30
0.0
  0
VERTEX
  5
471
330
264
100
AcDbEntity
  8
DESBASTE
100
AcDbVertex
100
AcDb2dVertex
 10
18.5
 20
56.0
 30
0.0
  0
VERTEX
  5
472
330
264
100
AcDbEntity
  8
DESBASTE
100
AcDbVertex
100
AcDb2dVertex
 10
-1.5
 20
56.0
 30
0.0
  0
SEQEND
  5
499
330
264
100
AcDbEntity
  8
DESBASTE
  0
POLYLINE
  5
322
330
1F
100
AcDbEntity
  8
0
100
AcDb2dPolyline
 66
     1
 10
0.0
 20
0.0
 30
0.0
 70
     1
  0
VERTEX
  5
473
330
322
100
AcDbEntity
  8
0
100
AcDbVertex
100
AcDb2dVertex
 10
43.0
 20
94.5
 30
0.0
  0
VERTEX
  5
474
330
322
100
AcDbEntity
  8
0
100
AcDbVertex
100
AcDb2dVertex
 10
43.0
 20
91.5
 30
0.0
 42
-0.414213562373095
  0
VERTEX
  5
475
330
322
100
AcDbEntity
  8
0
100
AcDbVertex
100
AcDb2dVertex
 10
37.0
 20
85.5
 30
0.0
  0
VERTEX
  5
476
330
322
100
AcDbEntity
  8
0
100
AcDbVertex
100
AcDb2dVertex
 10
10.5
 20
85.5
 30
0.0
 42
0.414213562373095
  0
VERTEX
  5
477
330
322
100
AcDbEntity
  8
0
100
AcDbVertex
100
AcDb2dVertex
 10
0.5
 20
75.5
 30
0.0
  0
VERTEX
  5
478
330
322
100
AcDbEntity
  8
0
100
AcDbVertex
100
AcDb2dVertex
 10
0.5
 20
10.5
 30
0.0
 42
0.414213562373095
  0
VERTEX
  5
479
330
322
100
AcDbEntity
  8
0
100
AcDbVertex
100
AcDb2dVertex
 10
10.5
 20
0.5
 30
0.0
  0
VERTEX
  5
47A
330
322
100
AcDbEntity
  8
0
100
AcDbVertex
100
AcDb2dVertex
 10
110.5
 20
0.5
 30
0.0
 42
0.414213562373095
  0
VERTEX
  5
47B
330
322
100
AcDbEntity
  8
0
100
AcDbVertex
100
AcDb2dVertex
 10
120.5
 20
10.5
 30
0.0
  0
VERTEX
  5
47C
330
322
100
AcDbEntity
  8
0
100
AcDbVertex
100
AcDb2dVertex
 10
120.5
 20
75.5
 30
0.0
 42
0.414213562373095
  0
VERTEX
  5
47D
330
322
100
AcDbEntity
  8
0
100
AcDbVertex
100
AcDb2dVertex
 10
110.5
 20
85.5
 30
0.0
  0
VERTEX
  5
47E
330
322
100
AcDbEntity
  8
0
100
AcDbVertex
100
AcDb2dVertex
 10
84.0
 20
85.5
 30
0.0
 42
-0.414213562373095
  0
VERTEX
  5
47F
330
322
100
AcDbEntity
  8
0
100
AcDbVertex
100
AcDb2dVertex
 10
78.0
 20
91.5
 30
0.0
  0
VERTEX
  5
480
330
322
100
AcDbEntity
  8
0
100
AcDbVertex
100
AcDb2dVertex
 10
78.0
 20
94.5
 30
0.0
 42
0.414213562373095
  0
VERTEX
  5
481
330
322
100
AcDbEntity
  8
0
100
AcDbVertex
100
AcDb2dVertex
 10
72.0
 20
100.5
 30
0.0
  0
VERTEX
  5
482
330
322
100
AcDbEntity
  8
0
100
AcDbVertex
100
AcDb2dVertex
 10
49.0
 20
100.5
 30
0.0
 42
0.414213562373095
  0
SEQEND
  5
49A
330
322
100
AcDbEntity
  8
0
  0
CIRCLE
  5
3A1
330
1F
100
AcDbEntity
  8
0
100
AcDbCircle
 10
55.75000000000003
 20
11.5
 30
0.0
 40
1.25
  0
CIRCLE
  5
3A2
330
1F
100
AcDbEntity
  8
0
100
AcDbCircle
 10
65.25000000000003
 20
11.5
 30
0.0
 40
1.25
  0
POLYLINE
  5
3A3
330
1F
100
AcDbEntity
  8
DESBASTE
100
AcDb2dPolyline
 66
     1
 10
0.0
 20
0.0
 30
0.0
 70
     1
  0
VERTEX
  5
483
330
3A3
100
AcDbEntity
  8
DESBASTE
100
AcDbVertex
100
AcDb2dVertex
 10
73.50000000000003
 20
18.5
 30
0.0
  0
VERTEX
  5
484
330
3A3
100
AcDbEntity
  8
DESBASTE
100
AcDbVertex
100
AcDb2dVertex
 10
73.5
 20
-1.5
 30
0.0
  0
VERTEX
  5
485
330
3A3
100
AcDbEntity
  8
DESBASTE
100
AcDbVertex
100
AcDb2dVertex
 10
47.5
 20
-1.5
 30
0.0
  0
VERTEX
  5
486
330
3A3
100
AcDbEntity
  8
DESBASTE
100
AcDbVertex
100
AcDb2dVertex
 10
47.50000000000003
 20
18.5
 30
0.0
  0
SEQEND
  5
49B
330
3A3
100
AcDbEntity
  8
DESBASTE
  0
POLYLINE
  5
3A6
330
1F
100
AcDbEntity
  8
OFFSET
100
AcDb2dPolyline
 66
     1
 10
0.0
 20
0.0
 30
0.0
 70
     1
  0
VERTEX
  5
487
330
3A6
100
AcDbEntity
  8
OFFSET
100
AcDbVertex
100
AcDb2dVertex
 10
42.5
 20
94.5
 30
0.0
  0
VERTEX
  5
488
330
3A6
100
AcDbEntity
  8
OFFSET
100
AcDbVertex
100
AcDb2dVertex
 10
42.5
 20
91.5
 30
0.0
 42
-0.414213562373095
  0
VERTEX
  5
489
330
3A6
100
AcDbEntity
  8
OFFSET
100
AcDbVertex
100
AcDb2dVertex
 10
37.0
 20
86.0
 30
0.0
  0
VERTEX
  5
48A
330
3A6
100
AcDbEntity
  8
OFFSET
100
AcDbVertex
100
AcDb2dVertex
 10
10.49999999999999
 20
86.0
 30
0.0
 42
0.414213562373095
  0
VERTEX
  5
48B
330
3A6
100
AcDbEntity
  8
OFFSET
100
AcDbVertex
100
AcDb2dVertex
 10
0.0000000000000071
 20
75.5
 30
0.0
  0
VERTEX
  5
48C
330
3A6
100
AcDbEntity
  8
OFFSET
100
AcDbVertex
100
AcDb2dVertex
 10
0.0000000000000071
 20
10.5
 30
0.0
 42
0.414213562373095
  0
VERTEX
  5
48D
330
3A6
100
AcDbEntity
  8
OFFSET
100
AcDbVertex
100
AcDb2dVertex
 10
10.5
 20
0.0000000000000071
 30
0.0
  0
VERTEX
  5
48E
330
3A6
100
AcDbEntity
  8
OFFSET
100
AcDbVertex
100
AcDb2dVertex
 10
110.5
 20
0.0000000000000071
 30
0.0
 42
0.414213562373095
  0
VERTEX
  5
48F
330
3A6
100
AcDbEntity
  8
OFFSET
100
AcDbVertex
100
AcDb2dVertex
 10
121.0
 20
10.5
 30
0.0
  0
VERTEX
  5
490
330
3A6
100
AcDbEntity
  8
OFFSET
100
AcDbVertex
100
AcDb2dVertex
 10
121.0
 20
75.5
 30
0.0
 42
0.414213562373095
  0
VERTEX
  5
491
330
3A6
100
AcDbEntity
  8
OFFSET
100
AcDbVertex
100
AcDb2dVertex
 10
110.5
 20
86.0
 30
0.0
  0
VERTEX
  5
492
330
3A6
100
AcDbEntity
  8
OFFSET
100
AcDbVertex
100
AcDb2dVertex
 10
84.0
 20
86.0
 30
0.0
 42
-0.414213562373095
  0
VERTEX
  5
493
330
3A6
100
AcDbEntity
  8
OFFSET
100
AcDbVertex
100
AcDb2dVertex
 10
78.5
 20
91.5
 30
0.0
  0
VERTEX
  5
494
330
3A6
100
AcDbEntity
  8
OFFSET
100
AcDbVertex
100
AcDb2dVertex
 10
78.5
 20
94.5
 30
0.0
 42
0.414213562373095
  0
VERTEX
  5
495
330
3A6
100
AcDbEntity
  8
OFFSET
100
AcDbVertex
100
AcDb2dVertex
 10
72.0
 20
101.0
 30
0.0
  0
VERTEX
  5
496
330
3A6
100
AcDbEntity
  8
OFFSET
100
AcDbVertex
100
AcDb2dVertex
 10
49.0
 20
101.0
 30
0.0
 42
0.414213562373095
  0
SEQEND
  5
49C
330
3A6
100
AcDbEntity
  8
OFFSET
  0
CIRCLE
  5
3E4
330
1F
100
AcDbEntity
  8
0
100
AcDbCircle
 10
65.25
 20
94.5
 30
0.0
 40
1.25
  0
CIRCLE
  5
3E5
330
1F
100
AcDbEntity
  8
0
100
AcDbCircle
 10
55.75
 20
94.5
 30
0.0
 40
1.25
  0
ENDSEC
  0
SECTION
  2
OBJECTS
  0
DICTIONARY
  5
C
330
0
100
AcDbDictionary
  3
ACAD_DETAILVIEWSTYLE
350
DB
  3
ACAD_GROUP
350
D
  3
ACAD_IMAGE_VARS
350
6A
  3
ACAD_MLINESTYLE
350
17
  3
ACAD_SCALELIST
350
420
  3
ACAD_SECTIONVIEWSTYLE
350
DC
  3
ACDBVARIABLEDICTIONARY
350
3D
  3
APPDATA
350
71
  3
DWGPROPS
350
466
1001
ACAD
1000
TREAT_AS_HARD
1070
     0
  0
DICTIONARY
  5
BD
330
2
100
AcDbDictionary
  3
ACAD_LAYERSTATES
360
BE
  3
ACLYDICTIONARY
360
26A
1001
ACAD
1000
TREAT_AS_HARD
1070
     1
  0
DICTIONARY
  5
DB
102
{ACAD_REACTORS
330
C
102
}
330
C
100
AcDbDictionary
1001
ACAD
1000
TREAT_AS_HARD
1070
     0
  0
DICTIONARY
  5
D
102
{ACAD_REACTORS
330
C
102
}
330
C
100
AcDbDictionary
1001
ACAD
1000
TREAT_AS_HARD
1070
     0
  0
RASTERVARIABLES
  5
6A
102
{ACAD_REACTORS
330
C
102
}
330
C
100
AcDbRasterVariables
 90
        0
 70
     1
 71
     1
 72
     1
  0
DICTIONARY
  5
17
102
{ACAD_REACTORS
330
C
102
}
330
C
100
AcDbDictionary
  3
STANDARD
350
18
1001
ACAD
1000
TREAT_AS_HARD
1070
     0
  0
DICTIONARY
  5
420
102
{ACAD_REACTORS
330
C
102
}
330
C
100
AcDbDictionary
1001
ACAD
1000
TREAT_AS_HARD
1070
     0
  0
DICTIONARY
  5
DC
102
{ACAD_REACTORS
330
C
102
}
330
C
100
AcDbDictionary
1001
ACAD
1000
TREAT_AS_HARD
1070
     0
  0
DICTIONARY
  5
3D
102
{ACAD_REACTORS
330
C
102
}
330
C
100
AcDbDictionary
1001
ACAD
1000
TREAT_AS_HARD
1070
     0
  0
DICTIONARY
  5
71
102
{ACAD_REACTORS
330
C
102
}
330
C
100
AcDbDictionary
1001
ACAD
1000
TREAT_AS_HARD
1070
     0
  0
XRECORD
  5
466
102
{ACAD_REACTORS
330
C
102
}
330
C
100
AcDbXrecord
  1
DWGPROPS COOKIE
  2

  3

  4

  6

  7

  8

  9

300
=
301
=
302
=
303
=
304
=
305
=
306
=
307
=
308
=
309
=
 40
0.0
 41
2455022.637359514
 42
2458316.610417072
  1

 90
        0
  0
DICTIONARY
  5
BE
102
{ACAD_REACTORS
330
BD
102
}
330
BD
100
AcDbDictionary
1001
ACAD
1000
TREAT_AS_HARD
1070
     0
  0
DICTIONARY
  5
26A
102
{ACAD_REACTORS
330
BD
102
}
330
BD
100
AcDbDictionary
1001
ACAD
1000
<All
1000
TREAT_AS_HARD
1070
     0
  0
MLINESTYLE
  5
18
102
{ACAD_REACTORS
330
17
102
}
330
17
100
AcDbMlineStyle
  2
Standard
 70
     0
  3

 62
   256
 51
90.0
 52
90.0
 71
     2
 49
0.5
 62
   256
  6
BYLAYER
 49
-0.5
 62
   256
  6
BYLAYER
  0
ENDSEC
  0
EOF
